<svg xmlns="http://www.w3.org/2000/svg" xmlns:xlink="http://www.w3.org/1999/xlink" width="800" zoomAndPan="magnify" viewBox="0 0 600 599.999999" height="800" preserveAspectRatio="xMidYMid meet" version="1.0"><path fill="#ffffff" d="M 298.597656 263.726562 C 290.976562 264.933594 283.785156 269.546875 279.460938 276.015625 C 277.277344 279.28125 275.902344 282.582031 275.046875 286.613281 C 274.488281 289.261719 274.441406 294.285156 274.949219 297.105469 C 275.367188 299.410156 276.445312 302.632812 277.515625 304.78125 C 278.316406 306.386719 280.316406 309.550781 280.667969 309.765625 C 280.769531 309.832031 281.382812 309.453125 282.027344 308.925781 C 295.847656 297.625 300.390625 293.832031 300.253906 293.703125 C 300.167969 293.613281 297.359375 292.113281 294.015625 290.367188 L 287.933594 287.1875 L 287.171875 285.757812 C 286.464844 284.433594 284.660156 278.488281 284.890625 278.257812 C 284.941406 278.207031 287.621094 279.628906 290.84375 281.414062 C 293.691406 282.996094 296.542969 284.570312 299.394531 286.140625 C 306.449219 290.015625 310.445312 292.285156 310.496094 292.445312 C 310.527344 292.542969 308.828125 293.835938 306.71875 295.324219 C 302.703125 298.15625 290.789062 306.597656 281.457031 313.222656 C 272.167969 319.816406 269.917969 321.410156 266.410156 323.878906 C 260.917969 327.742188 260.492188 327.964844 273.921875 319.953125 C 279.371094 316.703125 283.964844 313.992188 284.132812 313.925781 C 284.316406 313.855469 285.105469 314.316406 286.15625 315.105469 C 289.335938 317.492188 293.542969 319.378906 297.652344 320.257812 C 300.566406 320.882812 305.964844 320.882812 308.914062 320.253906 C 320.582031 317.777344 329.394531 308.777344 331.59375 297.105469 C 332.066406 294.578125 332.074219 289.746094 331.609375 287.140625 C 331.199219 284.839844 330.144531 281.617188 329.101562 279.464844 C 325.640625 272.335938 318.714844 266.550781 311.058594 264.394531 C 307.644531 263.4375 302.261719 263.148438 298.597656 263.726562 M 300.429688 273.984375 C 298.179688 274.300781 294.140625 275.652344 294.269531 276.046875 C 294.308594 276.15625 299.667969 279.851562 306.183594 284.261719 C 312.703125 288.667969 318.035156 292.371094 318.035156 292.488281 C 318.035156 292.675781 315.039062 294.738281 298.613281 305.871094 C 296.261719 307.464844 294.371094 308.855469 294.40625 308.964844 C 294.5 309.246094 296.652344 310.136719 298.304688 310.574219 C 300.453125 311.148438 305.328125 311.109375 307.449219 310.5 C 310.761719 309.546875 313.496094 307.953125 315.855469 305.589844 C 319.21875 302.226562 321.03125 298.152344 321.261719 293.417969 C 321.390625 290.800781 321.132812 288.941406 320.292969 286.40625 C 318.804688 281.917969 314.972656 277.652344 310.621094 275.640625 C 307.609375 274.25 303.410156 273.566406 300.429688 273.984375 " fill-opacity="1" fill-rule="evenodd"/></svg>