<svg xmlns="http://www.w3.org/2000/svg" xmlns:xlink="http://www.w3.org/1999/xlink" width="800" zoomAndPan="magnify" viewBox="0 0 600 599.999999" height="800" preserveAspectRatio="xMidYMid meet" version="1.0"><defs><g/></defs><g fill="#ffffff" fill-opacity="1"><g transform="translate(207.281636, 285.950048)"><g><path d="M 0.46875 -32.90625 L 5.828125 -32.90625 L 18.421875 -4.421875 L 31.0625 -32.90625 L 36.421875 -32.90625 L 22.046875 0 L 14.859375 0 Z M 0.46875 -32.90625 "/></g></g></g><g fill="#ffffff" fill-opacity="1"><g transform="translate(240.739821, 285.950048)"><g><path d="M 15.421875 -24.25 C 19.679688 -24.25 22.835938 -23.503906 24.890625 -22.015625 C 26.941406 -20.523438 27.96875 -18.640625 27.96875 -16.359375 L 27.96875 0 L 24.203125 0 L 23.640625 -4.140625 C 22.421875 -2.566406 20.757812 -1.359375 18.65625 -0.515625 C 16.5625 0.328125 14.273438 0.75 11.796875 0.75 C 8.691406 0.75 6.347656 0.140625 4.765625 -1.078125 C 3.179688 -2.296875 2.390625 -3.941406 2.390625 -6.015625 C 2.390625 -7.765625 3.023438 -9.25 4.296875 -10.46875 C 5.566406 -11.695312 7.726562 -12.640625 10.78125 -13.296875 C 13.84375 -13.953125 18.019531 -14.296875 23.3125 -14.328125 L 23.3125 -16.359375 C 23.3125 -17.734375 22.691406 -18.882812 21.453125 -19.8125 C 20.210938 -20.738281 18.203125 -21.203125 15.421875 -21.203125 C 12.628906 -21.203125 10.613281 -20.757812 9.375 -19.875 C 8.132812 -19 7.515625 -17.828125 7.515625 -16.359375 L 7.515625 -15.984375 L 2.859375 -15.984375 L 2.859375 -16.359375 C 2.859375 -18.671875 3.882812 -20.5625 5.9375 -22.03125 C 8 -23.507812 11.160156 -24.25 15.421875 -24.25 Z M 23.3125 -9.828125 L 23.3125 -11.703125 C 19.082031 -11.671875 15.785156 -11.453125 13.421875 -11.046875 C 11.054688 -10.640625 9.394531 -10.039062 8.4375 -9.25 C 7.476562 -8.46875 7 -7.5 7 -6.34375 C 7 -5.1875 7.484375 -4.222656 8.453125 -3.453125 C 9.429688 -2.679688 11.015625 -2.296875 13.203125 -2.296875 C 14.960938 -2.296875 16.609375 -2.585938 18.140625 -3.171875 C 19.671875 -3.753906 20.914062 -4.609375 21.875 -5.734375 C 22.832031 -6.859375 23.3125 -8.222656 23.3125 -9.828125 Z M 23.3125 -9.828125 "/></g></g></g><g fill="#ffffff" fill-opacity="1"><g transform="translate(271.472665, 285.950048)"><g><path d="M 2.859375 -23.5 L 6.625 -23.5 L 7.140625 -20.15625 C 8.046875 -21.445312 9.28125 -22.453125 10.84375 -23.171875 C 12.414062 -23.890625 14.316406 -24.25 16.546875 -24.25 C 19.046875 -24.25 21.140625 -23.796875 22.828125 -22.890625 C 24.523438 -21.984375 25.804688 -20.742188 26.671875 -19.171875 C 27.535156 -17.609375 27.96875 -15.820312 27.96875 -13.8125 L 27.96875 0 L 23.3125 0 L 23.3125 -13.8125 C 23.3125 -15.851562 22.648438 -17.5 21.328125 -18.75 C 20.015625 -20.007812 18.046875 -20.640625 15.421875 -20.640625 C 12.941406 -20.640625 11.003906 -20.023438 9.609375 -18.796875 C 8.210938 -17.578125 7.515625 -15.914062 7.515625 -13.8125 L 7.515625 0 L 2.859375 0 Z M 2.859375 -23.5 "/></g></g></g><g fill="#ffffff" fill-opacity="1"><g transform="translate(302.2995, 285.950048)"><g><path d="M 6.109375 -31.296875 L 9.875 -31.296875 L 9.875 -23.5 L 19.21875 -23.5 L 19.21875 -19.96875 L 9.875 -19.96875 L 9.875 -7.46875 C 9.875 -5.875 10.316406 -4.707031 11.203125 -3.96875 C 12.097656 -3.226562 13.140625 -2.859375 14.328125 -2.859375 C 15.179688 -2.859375 15.988281 -2.945312 16.75 -3.125 C 17.519531 -3.300781 18.34375 -3.6875 19.21875 -4.28125 L 19.21875 -0.703125 C 18.28125 -0.171875 17.328125 0.203125 16.359375 0.421875 C 15.390625 0.640625 14.289062 0.75 13.0625 0.75 C 10.78125 0.75 8.898438 0.0664062 7.421875 -1.296875 C 5.953125 -2.660156 5.21875 -4.578125 5.21875 -7.046875 L 5.21875 -19.96875 L 0.796875 -19.96875 L 0.796875 -23.5 L 5.21875 -23.5 Z M 6.109375 -31.296875 "/></g></g></g><g fill="#ffffff" fill-opacity="1"><g transform="translate(322.130176, 285.950048)"><g><path d="M 15.421875 -24.25 C 19.679688 -24.25 22.835938 -23.503906 24.890625 -22.015625 C 26.941406 -20.523438 27.96875 -18.640625 27.96875 -16.359375 L 27.96875 0 L 24.203125 0 L 23.640625 -4.140625 C 22.421875 -2.566406 20.757812 -1.359375 18.65625 -0.515625 C 16.5625 0.328125 14.273438 0.75 11.796875 0.75 C 8.691406 0.75 6.347656 0.140625 4.765625 -1.078125 C 3.179688 -2.296875 2.390625 -3.941406 2.390625 -6.015625 C 2.390625 -7.765625 3.023438 -9.25 4.296875 -10.46875 C 5.566406 -11.695312 7.726562 -12.640625 10.78125 -13.296875 C 13.84375 -13.953125 18.019531 -14.296875 23.3125 -14.328125 L 23.3125 -16.359375 C 23.3125 -17.734375 22.691406 -18.882812 21.453125 -19.8125 C 20.210938 -20.738281 18.203125 -21.203125 15.421875 -21.203125 C 12.628906 -21.203125 10.613281 -20.757812 9.375 -19.875 C 8.132812 -19 7.515625 -17.828125 7.515625 -16.359375 L 7.515625 -15.984375 L 2.859375 -15.984375 L 2.859375 -16.359375 C 2.859375 -18.671875 3.882812 -20.5625 5.9375 -22.03125 C 8 -23.507812 11.160156 -24.25 15.421875 -24.25 Z M 23.3125 -9.828125 L 23.3125 -11.703125 C 19.082031 -11.671875 15.785156 -11.453125 13.421875 -11.046875 C 11.054688 -10.640625 9.394531 -10.039062 8.4375 -9.25 C 7.476562 -8.46875 7 -7.5 7 -6.34375 C 7 -5.1875 7.484375 -4.222656 8.453125 -3.453125 C 9.429688 -2.679688 11.015625 -2.296875 13.203125 -2.296875 C 14.960938 -2.296875 16.609375 -2.585938 18.140625 -3.171875 C 19.671875 -3.753906 20.914062 -4.609375 21.875 -5.734375 C 22.832031 -6.859375 23.3125 -8.222656 23.3125 -9.828125 Z M 23.3125 -9.828125 "/></g></g></g><g fill="#ffffff" fill-opacity="1"><g transform="translate(352.86302, 285.950048)"><g><path d="M 24.390625 -23.5 L 27.96875 -23.5 L 27.96875 0.328125 C 27.96875 3.304688 26.941406 5.6875 24.890625 7.46875 C 22.835938 9.257812 19.679688 10.15625 15.421875 10.15625 C 11.160156 10.15625 8 9.394531 5.9375 7.875 C 3.882812 6.351562 2.859375 4.304688 2.859375 1.734375 L 2.859375 1.453125 L 7.421875 1.453125 L 7.515625 1.734375 C 7.640625 3.367188 8.320312 4.640625 9.5625 5.546875 C 10.800781 6.453125 12.753906 6.90625 15.421875 6.90625 C 18.203125 6.90625 20.210938 6.3125 21.453125 5.125 C 22.691406 3.9375 23.3125 2.335938 23.3125 0.328125 L 23.3125 -3.53125 C 22.375 -2.175781 21.128906 -1.125 19.578125 -0.375 C 18.023438 0.375 16.179688 0.75 14.046875 0.75 C 10.191406 0.75 7.285156 -0.367188 5.328125 -2.609375 C 3.367188 -4.847656 2.390625 -7.894531 2.390625 -11.75 C 2.390625 -15.601562 3.367188 -18.648438 5.328125 -20.890625 C 7.285156 -23.128906 10.191406 -24.25 14.046875 -24.25 C 16.335938 -24.25 18.296875 -23.828125 19.921875 -22.984375 C 21.554688 -22.140625 22.828125 -20.929688 23.734375 -19.359375 Z M 23.3125 -11.1875 L 23.3125 -12.3125 C 23.3125 -14.851562 22.628906 -16.875 21.265625 -18.375 C 19.898438 -19.882812 17.890625 -20.640625 15.234375 -20.640625 C 12.503906 -20.640625 10.457031 -19.863281 9.09375 -18.3125 C 7.726562 -16.757812 7.046875 -14.570312 7.046875 -11.75 C 7.046875 -8.925781 7.726562 -6.738281 9.09375 -5.1875 C 10.457031 -3.632812 12.503906 -2.859375 15.234375 -2.859375 C 17.890625 -2.859375 19.898438 -3.609375 21.265625 -5.109375 C 22.628906 -6.617188 23.3125 -8.644531 23.3125 -11.1875 Z M 23.3125 -11.1875 "/></g></g></g><g fill="#ffffff" fill-opacity="1"><g transform="translate(383.689855, 285.950048)"><g><path d="M 24.390625 -23.5 L 27.96875 -23.5 L 27.96875 0.328125 C 27.96875 3.304688 26.941406 5.6875 24.890625 7.46875 C 22.835938 9.257812 19.679688 10.15625 15.421875 10.15625 C 11.160156 10.15625 8 9.394531 5.9375 7.875 C 3.882812 6.351562 2.859375 4.304688 2.859375 1.734375 L 2.859375 1.453125 L 7.421875 1.453125 L 7.515625 1.734375 C 7.640625 3.367188 8.320312 4.640625 9.5625 5.546875 C 10.800781 6.453125 12.753906 6.90625 15.421875 6.90625 C 18.203125 6.90625 20.210938 6.3125 21.453125 5.125 C 22.691406 3.9375 23.3125 2.335938 23.3125 0.328125 L 23.3125 -3.53125 C 22.375 -2.175781 21.128906 -1.125 19.578125 -0.375 C 18.023438 0.375 16.179688 0.75 14.046875 0.75 C 10.191406 0.75 7.285156 -0.367188 5.328125 -2.609375 C 3.367188 -4.847656 2.390625 -7.894531 2.390625 -11.75 C 2.390625 -15.601562 3.367188 -18.648438 5.328125 -20.890625 C 7.285156 -23.128906 10.191406 -24.25 14.046875 -24.25 C 16.335938 -24.25 18.296875 -23.828125 19.921875 -22.984375 C 21.554688 -22.140625 22.828125 -20.929688 23.734375 -19.359375 Z M 23.3125 -11.1875 L 23.3125 -12.3125 C 23.3125 -14.851562 22.628906 -16.875 21.265625 -18.375 C 19.898438 -19.882812 17.890625 -20.640625 15.234375 -20.640625 C 12.503906 -20.640625 10.457031 -19.863281 9.09375 -18.3125 C 7.726562 -16.757812 7.046875 -14.570312 7.046875 -11.75 C 7.046875 -8.925781 7.726562 -6.738281 9.09375 -5.1875 C 10.457031 -3.632812 12.503906 -2.859375 15.234375 -2.859375 C 17.890625 -2.859375 19.898438 -3.609375 21.265625 -5.109375 C 22.628906 -6.617188 23.3125 -8.644531 23.3125 -11.1875 Z M 23.3125 -11.1875 "/></g></g></g><g fill="#ffffff" fill-opacity="1"><g transform="translate(414.51669, 285.950048)"><g><path d="M 2.859375 -23.5 L 7.515625 -23.5 L 7.515625 0 L 2.859375 0 Z M 2.859375 -32.90625 L 7.515625 -32.90625 L 7.515625 -28.484375 L 2.859375 -28.484375 Z M 2.859375 -32.90625 "/></g></g></g><g fill="#ffffff" fill-opacity="1"><g transform="translate(424.854961, 285.950048)"><g><path d="M 15.421875 -24.25 C 19.585938 -24.25 22.796875 -23.128906 25.046875 -20.890625 C 27.304688 -18.648438 28.4375 -15.601562 28.4375 -11.75 C 28.4375 -7.894531 27.304688 -4.847656 25.046875 -2.609375 C 22.796875 -0.367188 19.585938 0.75 15.421875 0.75 C 11.253906 0.75 8.039062 -0.367188 5.78125 -2.609375 C 3.519531 -4.847656 2.390625 -7.894531 2.390625 -11.75 C 2.390625 -15.601562 3.519531 -18.648438 5.78125 -20.890625 C 8.039062 -23.128906 11.253906 -24.25 15.421875 -24.25 Z M 15.421875 -20.640625 C 12.722656 -20.640625 10.648438 -19.863281 9.203125 -18.3125 C 7.765625 -16.757812 7.046875 -14.570312 7.046875 -11.75 C 7.046875 -8.925781 7.765625 -6.738281 9.203125 -5.1875 C 10.648438 -3.632812 12.722656 -2.859375 15.421875 -2.859375 C 18.109375 -2.859375 20.171875 -3.632812 21.609375 -5.1875 C 23.054688 -6.738281 23.78125 -8.925781 23.78125 -11.75 C 23.78125 -14.570312 23.054688 -16.757812 21.609375 -18.3125 C 20.171875 -19.863281 18.109375 -20.640625 15.421875 -20.640625 Z M 15.421875 -20.640625 "/></g></g></g><path fill="#ffffff" d="M 163.820312 238.84375 C 156.199219 240.050781 149.007812 244.664062 144.683594 251.132812 C 142.5 254.398438 141.125 257.699219 140.273438 261.730469 C 139.710938 264.382812 139.664062 269.40625 140.171875 272.222656 C 140.589844 274.527344 141.667969 277.75 142.738281 279.898438 C 143.539062 281.503906 145.539062 284.667969 145.890625 284.886719 C 145.992188 284.949219 146.605469 284.570312 147.25 284.042969 C 161.070312 272.742188 165.613281 268.953125 165.476562 268.820312 C 165.390625 268.734375 162.582031 267.234375 159.238281 265.484375 L 153.15625 262.308594 L 152.394531 260.875 C 151.6875 259.550781 149.882812 253.609375 150.113281 253.375 C 150.164062 253.328125 152.84375 254.746094 156.066406 256.535156 C 158.914062 258.113281 161.765625 259.6875 164.621094 261.261719 C 171.671875 265.136719 175.667969 267.40625 175.71875 267.566406 C 175.75 267.660156 174.050781 268.957031 171.941406 270.445312 C 167.925781 273.273438 156.011719 281.714844 146.679688 288.339844 C 137.390625 294.933594 135.140625 296.527344 131.632812 298.996094 C 126.140625 302.863281 125.714844 303.085938 139.148438 295.070312 C 144.59375 291.820312 149.1875 289.109375 149.355469 289.046875 C 149.539062 288.976562 150.328125 289.433594 151.378906 290.222656 C 154.558594 292.609375 158.765625 294.496094 162.875 295.378906 C 165.789062 296 171.1875 296 174.136719 295.375 C 185.804688 292.894531 194.617188 283.894531 196.816406 272.222656 C 197.289062 269.699219 197.296875 264.863281 196.832031 262.257812 C 196.421875 259.957031 195.367188 256.734375 194.324219 254.582031 C 190.863281 247.453125 183.9375 241.667969 176.28125 239.515625 C 172.867188 238.554688 167.484375 238.265625 163.820312 238.84375 M 165.652344 249.105469 C 163.402344 249.417969 159.363281 250.769531 159.492188 251.164062 C 159.53125 251.273438 164.890625 254.972656 171.40625 259.378906 C 177.925781 263.785156 183.257812 267.488281 183.257812 267.605469 C 183.257812 267.792969 180.261719 269.859375 163.835938 280.988281 C 161.484375 282.582031 159.59375 283.972656 159.628906 284.082031 C 159.722656 284.363281 161.875 285.253906 163.527344 285.695312 C 165.675781 286.269531 170.550781 286.226562 172.671875 285.617188 C 175.984375 284.664062 178.71875 283.070312 181.078125 280.710938 C 184.441406 277.34375 186.253906 273.269531 186.484375 268.535156 C 186.613281 265.921875 186.355469 264.0625 185.515625 261.523438 C 184.027344 257.035156 180.195312 252.769531 175.84375 250.761719 C 172.832031 249.367188 168.632812 248.6875 165.652344 249.105469 " fill-opacity="1" fill-rule="evenodd"/></svg>